<?xml version="1.0" encoding="utf-8"?>
<!-- Generator: Adobe Illustrator 21.1.0, SVG Export Plug-In . SVG Version: 6.00 Build 0)  -->
<svg version="1.1" id="Calque_1" xmlns="http://www.w3.org/2000/svg" xmlns:xlink="http://www.w3.org/1999/xlink" x="0px" y="0px"
	 viewBox="0 0 113.4 113.4" style="enable-background:new 0 0 113.4 113.4;" xml:space="preserve">
<style type="text/css">
	.st0{fill:#E71C1B;}
</style>
<g>
	<path class="st0" d="M55.4,82.6c0.7,0.2,1.5,0.3,2.3,0.4c0.8-0.1,1.5-0.2,2.3-0.4c9-2.1,15.7-10.1,15.7-19.7V39.8l-3.4,1.9v21.2
		c0,7.7-5.2,14.3-12.3,16.3c-0.7,0.2-1.5,0.4-2.3,0.5c-0.8-0.1-1.5-0.3-2.3-0.5c-7.1-2-12.3-8.5-12.3-16.3V28.1L39.7,30v32.8
		C39.7,72.5,46.4,80.6,55.4,82.6z"/>
	<path class="st0" d="M67.4,36.8L46.5,48.9v3.9l32.6-18.8v3.9v7.9v17.2c0,11.5-8.2,21.1-19.1,23.2c-0.7,0.1-1.5,0.3-2.3,0.3
		c-0.8-0.1-1.5-0.2-2.3-0.3C44.6,84,36.4,74.4,36.4,62.9V32L33,33.9v29c0,13.4,9.7,24.5,22.5,26.6c0.7,0.1,1.5,0.2,2.3,0.3
		c0.8-0.1,1.5-0.2,2.3-0.3c12.8-2.2,22.5-13.2,22.5-26.6V45.7v-9.8V32v-1.2v-2.7L67.4,36.8z"/>
	<polygon class="st0" points="75.7,24.2 46.5,41.1 46.5,45 75.7,28.1 	"/>
</g>
</svg>
